<svg xmlns="http://www.w3.org/2000/svg" width="142" height="142" viewBox="0 0 142 142">
  <path fill="#f1f1f1" fill-rule="evenodd" d="M54.500 33.439C49.391 33.748 44.995 36.946 42.837 41.500C42.218 42.808 42.275 44.171 41.830 45.500C41.412 46.747 40.150 47.902 39.500 49.046C38.773 50.327 38.343 52.051 38.057 53.500C37.729 55.166 38.438 56.838 38.115 58.500C37.774 60.256 36.290 61.630 36.073 63.500C35.365 69.593 38.398 75.877 44.500 77.707C48.621 78.943 53.235 78.395 57.500 78.395C58.754 78.395 61.602 77.781 62.500 78.927C63.271 79.911 61.861 83.461 61.628 84.500C60.662 88.805 59.665 93.329 61.731 97.500C63.761 101.598 67.090 104.078 71.500 105.105C75.111 105.945 77.951 106.590 79.500 102.575C82.158 95.684 84.702 88.531 86.974 81.500C87.761 79.063 88.270 75.642 89.703 73.500C92.385 69.489 97.740 72.679 101.500 70.853C106.138 68.600 104.310 59.607 104.310 55.500C104.310 51.802 105.486 45.660 103.198 42.500C100.409 38.648 93.413 40.969 89.500 39.848C86.096 38.873 83.008 36.417 79.500 35.368C71.624 33.012 62.688 32.943 54.500 33.439Z M52.500 40.401C49.232 41.262 48.677 44.757 48.513 47.500C48.425 48.959 45.701 51.068 45.054 52.500C43.947 54.952 45.634 57.140 45.361 59.500C45.235 60.587 44.559 60.712 44.059 61.500C42.800 63.482 42.065 66.222 42.963 68.500C45.084 73.881 55.195 71.906 59.500 71.906C60.798 71.906 62.216 71.747 63.500 71.961C72.294 73.426 68.410 83.898 67.153 89.500C66.782 91.150 67.149 92.873 67.445 94.500C67.755 96.196 70.054 97.996 71.580 98.500C72.212 98.709 73.353 99.265 73.857 98.500C75.508 95.990 76.288 92.350 77.198 89.500C78.280 86.111 79.647 82.846 80.792 79.500C82.090 75.707 82.909 71.733 85.397 68.500C88.747 64.149 93.209 66.228 97.500 64.585C98.117 64.349 97.839 61.985 97.839 61.500C97.839 58.500 97.826 55.500 97.826 52.500C97.826 50.926 98.109 49.034 97.711 47.500C97.528 46.795 95.973 46.956 95.500 46.952C92.724 46.929 90.138 46.988 87.500 45.986C83.750 44.562 80.451 42.225 76.500 41.213C71.269 39.873 65.866 40.013 60.500 40.013C57.888 40.013 55.052 39.728 52.500 40.401Z"/>
</svg>
